# xmcd
# 
# Track frame offsets:
#     150
#     13937
#     27915
#     40692
#     51262
#     66610
#     81342
#     94622
#     109542
#     124452
#     138980
#     153137
#     165230
#     179725
#     193842
#     209037
#     221977
#     238750
#     255067
#     269030
#     281520
#     295427
#     307892
# 
# Disc length: 4280
# 
# Revision: 0
# Processed by: cddbd v1.5.2PL0 Copyright (c) Steve Scherf et al.
# Submitted via: fre:ac v1.0.17
# 
DISCID=6010b617
DTITLE=Various Artist - Ruckus Juice and Chittlins Volume 1
DYEAR=0
DGENRE=
TTITLE0=Whistler's Jug Band - Low Down Blues
TTITLE1=Birmingham Jug Band - Giving It Away
TTITLE2=Memphis Jug Band - Cocaine Habit Blues
TTITLE3=Ben Ferguson - Try And Treat Her Right
TTITLE4=John Harris - Glad And Sorry Blues
TTITLE5=King David's Jug Band - What's That Tastes Like Gravy
TTITLE6=Cincinnati Jug Band - Newport Blues
TTITLE7=Cannon's Jug Stompers - Big Railroad Blues
TTITLE8=Memphis Jug Band - Fourth Street Mess Around
TTITLE9=Dixieland Jug Blowers - Banjoreno
TTITLE10=King David's Jug Band - Tear It Down
TTITLE11=Noah Lewis's Jug Band - Ticket Agent Blues
TTITLE12=Jed Davenport and His Beale Street Jug Band - You Ought To Move Out Of Town
TTITLE13=Jack Kelly and His South Memphis Jug Band - Cold Iron Bed
TTITLE14=Birmingham Jug Band - Bill Wilson
TTITLE15=Kaiser Clifton - Cash Money Blues
TTITLE16=Cannon's Jug Stompers - Minglewood Blues
TTITLE17=The Walter Family - That's My Rabbit, My Dog Caught It
TTITLE18=Memphis Jug Band - Spider's Nest Blues
TTITLE19=Earl McDonald's Original Louisville Jug Band - She's In The Graveyard Now
TTITLE20=Ben Ferguson - Please Don't Holler, Mama
TTITLE21=Whistler's Jug Band - Vamps Of "28"
TTITLE22=Memphis Jug Band - Ruckus Juice And Chittlin'
EXTD=
EXTT0=
EXTT1=
EXTT2=
EXTT3=
EXTT4=
EXTT5=
EXTT6=
EXTT7=
EXTT8=
EXTT9=
EXTT10=
EXTT11=
EXTT12=
EXTT13=
EXTT14=
EXTT15=
EXTT16=
EXTT17=
EXTT18=
EXTT19=
EXTT20=
EXTT21=
EXTT22=
PLAYORDER=
